<mxfile host="app.diagrams.net" modified="2023-07-29T14:35:44.376Z" agent="Mozilla/5.0 (Windows NT 10.0; Win64; x64) AppleWebKit/537.36 (KHTML, like Gecko) Chrome/115.0.0.0 Safari/537.36" etag="etK-MX2BsmbIIE3-jMQr" version="21.6.5" type="github">
  <diagram id="C5RBs43oDa-KdzZeNtuy" name="Page-1">
    <mxGraphModel dx="880" dy="1647" grid="1" gridSize="10" guides="1" tooltips="1" connect="1" arrows="1" fold="1" page="1" pageScale="1" pageWidth="827" pageHeight="1169" math="0" shadow="0">
      <root>
        <mxCell id="WIyWlLk6GJQsqaUBKTNV-0" />
        <mxCell id="WIyWlLk6GJQsqaUBKTNV-1" parent="WIyWlLk6GJQsqaUBKTNV-0" />
        <mxCell id="QWWySNFE1kLV3shPsF9k-15" value="&lt;font style=&quot;vertical-align: inherit;&quot;&gt;&lt;font style=&quot;vertical-align: inherit;&quot;&gt;FIM&lt;/font&gt;&lt;/font&gt;" style="ellipse;whiteSpace=wrap;html=1;" vertex="1" parent="WIyWlLk6GJQsqaUBKTNV-1">
          <mxGeometry x="328.5" y="290" width="167" height="80" as="geometry" />
        </mxCell>
        <mxCell id="QWWySNFE1kLV3shPsF9k-17" value="&lt;font style=&quot;vertical-align: inherit;&quot;&gt;&lt;font style=&quot;vertical-align: inherit;&quot;&gt;INICIO&lt;/font&gt;&lt;/font&gt;" style="ellipse;whiteSpace=wrap;html=1;" vertex="1" parent="WIyWlLk6GJQsqaUBKTNV-1">
          <mxGeometry x="325" y="-1160" width="190" height="80" as="geometry" />
        </mxCell>
        <mxCell id="QWWySNFE1kLV3shPsF9k-19" value="" style="rounded=0;html=1;jettySize=auto;orthogonalLoop=1;fontSize=11;endArrow=block;endFill=0;endSize=8;strokeWidth=1;shadow=0;labelBackgroundColor=none;edgeStyle=orthogonalEdgeStyle;" edge="1" parent="WIyWlLk6GJQsqaUBKTNV-1" target="QWWySNFE1kLV3shPsF9k-18">
          <mxGeometry relative="1" as="geometry">
            <mxPoint x="415" y="-1080" as="sourcePoint" />
            <mxPoint x="395" y="140" as="targetPoint" />
          </mxGeometry>
        </mxCell>
        <mxCell id="QWWySNFE1kLV3shPsF9k-56" style="edgeStyle=orthogonalEdgeStyle;rounded=0;orthogonalLoop=1;jettySize=auto;html=1;" edge="1" parent="WIyWlLk6GJQsqaUBKTNV-1" source="QWWySNFE1kLV3shPsF9k-18">
          <mxGeometry relative="1" as="geometry">
            <mxPoint x="530" y="-1010" as="targetPoint" />
          </mxGeometry>
        </mxCell>
        <mxCell id="QWWySNFE1kLV3shPsF9k-18" value="&lt;font style=&quot;vertical-align: inherit;&quot;&gt;&lt;font style=&quot;vertical-align: inherit;&quot;&gt;SALDO&lt;/font&gt;&lt;/font&gt;" style="shape=parallelogram;perimeter=parallelogramPerimeter;whiteSpace=wrap;html=1;fixedSize=1;" vertex="1" parent="WIyWlLk6GJQsqaUBKTNV-1">
          <mxGeometry x="355" y="-1040" width="120" height="60" as="geometry" />
        </mxCell>
        <mxCell id="QWWySNFE1kLV3shPsF9k-26" style="edgeStyle=orthogonalEdgeStyle;rounded=0;orthogonalLoop=1;jettySize=auto;html=1;exitX=0.5;exitY=1;exitDx=0;exitDy=0;entryX=1;entryY=0.5;entryDx=0;entryDy=0;" edge="1" parent="WIyWlLk6GJQsqaUBKTNV-1" source="QWWySNFE1kLV3shPsF9k-22" target="QWWySNFE1kLV3shPsF9k-23">
          <mxGeometry relative="1" as="geometry" />
        </mxCell>
        <mxCell id="QWWySNFE1kLV3shPsF9k-22" value="SALDO INICIAL: &quot;+&lt;br&gt;SALDO" style="shape=trapezoid;perimeter=trapezoidPerimeter;whiteSpace=wrap;html=1;fixedSize=1;" vertex="1" parent="WIyWlLk6GJQsqaUBKTNV-1">
          <mxGeometry x="530" y="-1040" width="140" height="70" as="geometry" />
        </mxCell>
        <mxCell id="QWWySNFE1kLV3shPsF9k-23" value="ENCERRAR = &#39;N&#39;" style="rounded=1;whiteSpace=wrap;html=1;" vertex="1" parent="WIyWlLk6GJQsqaUBKTNV-1">
          <mxGeometry x="354" y="-920" width="120" height="60" as="geometry" />
        </mxCell>
        <mxCell id="QWWySNFE1kLV3shPsF9k-86" style="edgeStyle=orthogonalEdgeStyle;rounded=0;orthogonalLoop=1;jettySize=auto;html=1;" edge="1" parent="WIyWlLk6GJQsqaUBKTNV-1" source="QWWySNFE1kLV3shPsF9k-33">
          <mxGeometry relative="1" as="geometry">
            <mxPoint x="550" y="-387.5" as="targetPoint" />
          </mxGeometry>
        </mxCell>
        <mxCell id="QWWySNFE1kLV3shPsF9k-88" style="edgeStyle=orthogonalEdgeStyle;rounded=0;orthogonalLoop=1;jettySize=auto;html=1;" edge="1" parent="WIyWlLk6GJQsqaUBKTNV-1" source="QWWySNFE1kLV3shPsF9k-33">
          <mxGeometry relative="1" as="geometry">
            <mxPoint x="412" y="-300" as="targetPoint" />
          </mxGeometry>
        </mxCell>
        <mxCell id="QWWySNFE1kLV3shPsF9k-33" value="tipo de entrada = 1" style="rhombus;whiteSpace=wrap;html=1;" vertex="1" parent="WIyWlLk6GJQsqaUBKTNV-1">
          <mxGeometry x="331.5" y="-440" width="161" height="105" as="geometry" />
        </mxCell>
        <mxCell id="QWWySNFE1kLV3shPsF9k-87" style="edgeStyle=orthogonalEdgeStyle;rounded=0;orthogonalLoop=1;jettySize=auto;html=1;" edge="1" parent="WIyWlLk6GJQsqaUBKTNV-1" source="QWWySNFE1kLV3shPsF9k-34">
          <mxGeometry relative="1" as="geometry">
            <mxPoint x="750" y="-390" as="targetPoint" />
          </mxGeometry>
        </mxCell>
        <mxCell id="QWWySNFE1kLV3shPsF9k-34" value="&amp;nbsp;saldo = saldo + quantidade" style="rounded=0;whiteSpace=wrap;html=1;" vertex="1" parent="WIyWlLk6GJQsqaUBKTNV-1">
          <mxGeometry x="570" y="-420" width="120" height="60" as="geometry" />
        </mxCell>
        <mxCell id="QWWySNFE1kLV3shPsF9k-35" value="&quot;Entrada:&quot; +&lt;br&gt;quantidade" style="shape=hexagon;perimeter=hexagonPerimeter2;whiteSpace=wrap;html=1;fixedSize=1;" vertex="1" parent="WIyWlLk6GJQsqaUBKTNV-1">
          <mxGeometry x="770" y="-427.5" width="120" height="80" as="geometry" />
        </mxCell>
        <mxCell id="QWWySNFE1kLV3shPsF9k-91" style="edgeStyle=orthogonalEdgeStyle;rounded=0;orthogonalLoop=1;jettySize=auto;html=1;" edge="1" parent="WIyWlLk6GJQsqaUBKTNV-1" source="QWWySNFE1kLV3shPsF9k-36">
          <mxGeometry relative="1" as="geometry">
            <mxPoint x="540" y="-240" as="targetPoint" />
          </mxGeometry>
        </mxCell>
        <mxCell id="QWWySNFE1kLV3shPsF9k-93" style="edgeStyle=orthogonalEdgeStyle;rounded=0;orthogonalLoop=1;jettySize=auto;html=1;" edge="1" parent="WIyWlLk6GJQsqaUBKTNV-1" source="QWWySNFE1kLV3shPsF9k-36">
          <mxGeometry relative="1" as="geometry">
            <mxPoint x="415" y="-70" as="targetPoint" />
          </mxGeometry>
        </mxCell>
        <mxCell id="QWWySNFE1kLV3shPsF9k-36" value="tipo de entrada = 2" style="rhombus;whiteSpace=wrap;html=1;" vertex="1" parent="WIyWlLk6GJQsqaUBKTNV-1">
          <mxGeometry x="342.5" y="-290" width="145" height="100" as="geometry" />
        </mxCell>
        <mxCell id="QWWySNFE1kLV3shPsF9k-92" style="edgeStyle=orthogonalEdgeStyle;rounded=0;orthogonalLoop=1;jettySize=auto;html=1;" edge="1" parent="WIyWlLk6GJQsqaUBKTNV-1" source="QWWySNFE1kLV3shPsF9k-43">
          <mxGeometry relative="1" as="geometry">
            <mxPoint x="740" y="-245" as="targetPoint" />
          </mxGeometry>
        </mxCell>
        <mxCell id="QWWySNFE1kLV3shPsF9k-100" style="edgeStyle=orthogonalEdgeStyle;rounded=0;orthogonalLoop=1;jettySize=auto;html=1;" edge="1" parent="WIyWlLk6GJQsqaUBKTNV-1" source="QWWySNFE1kLV3shPsF9k-43" target="QWWySNFE1kLV3shPsF9k-45">
          <mxGeometry relative="1" as="geometry" />
        </mxCell>
        <mxCell id="QWWySNFE1kLV3shPsF9k-43" value="saldo &amp;gt;=&lt;br&gt;quantidade" style="rhombus;whiteSpace=wrap;html=1;" vertex="1" parent="WIyWlLk6GJQsqaUBKTNV-1">
          <mxGeometry x="550" y="-290" width="150" height="90" as="geometry" />
        </mxCell>
        <mxCell id="QWWySNFE1kLV3shPsF9k-101" style="edgeStyle=orthogonalEdgeStyle;rounded=0;orthogonalLoop=1;jettySize=auto;html=1;entryX=0.5;entryY=0;entryDx=0;entryDy=0;" edge="1" parent="WIyWlLk6GJQsqaUBKTNV-1" source="QWWySNFE1kLV3shPsF9k-44" target="QWWySNFE1kLV3shPsF9k-46">
          <mxGeometry relative="1" as="geometry" />
        </mxCell>
        <mxCell id="QWWySNFE1kLV3shPsF9k-44" value="saldo = saldo -&amp;nbsp;&lt;br&gt;quantidade" style="rounded=1;whiteSpace=wrap;html=1;" vertex="1" parent="WIyWlLk6GJQsqaUBKTNV-1">
          <mxGeometry x="750" y="-275" width="120" height="55" as="geometry" />
        </mxCell>
        <mxCell id="QWWySNFE1kLV3shPsF9k-45" value="&quot;&#39;saldo insuficiente&quot;" style="shape=hexagon;perimeter=hexagonPerimeter2;whiteSpace=wrap;html=1;fixedSize=1;size=10;" vertex="1" parent="WIyWlLk6GJQsqaUBKTNV-1">
          <mxGeometry x="565" y="-180" width="120" height="80" as="geometry" />
        </mxCell>
        <mxCell id="QWWySNFE1kLV3shPsF9k-46" value="&quot;saÃ­da:&quot; +&lt;br&gt;quantidade" style="shape=hexagon;perimeter=hexagonPerimeter2;whiteSpace=wrap;html=1;fixedSize=1;" vertex="1" parent="WIyWlLk6GJQsqaUBKTNV-1">
          <mxGeometry x="740" y="-190" width="140" height="80" as="geometry" />
        </mxCell>
        <mxCell id="QWWySNFE1kLV3shPsF9k-105" style="edgeStyle=orthogonalEdgeStyle;rounded=0;orthogonalLoop=1;jettySize=auto;html=1;" edge="1" parent="WIyWlLk6GJQsqaUBKTNV-1" source="QWWySNFE1kLV3shPsF9k-47">
          <mxGeometry relative="1" as="geometry">
            <mxPoint x="420" y="70" as="targetPoint" />
          </mxGeometry>
        </mxCell>
        <mxCell id="QWWySNFE1kLV3shPsF9k-47" value="saldo" style="shape=hexagon;perimeter=hexagonPerimeter2;whiteSpace=wrap;html=1;fixedSize=1;" vertex="1" parent="WIyWlLk6GJQsqaUBKTNV-1">
          <mxGeometry x="360" y="-60" width="120" height="80" as="geometry" />
        </mxCell>
        <mxCell id="QWWySNFE1kLV3shPsF9k-49" value="encerrar? (s/n)" style="shape=parallelogram;perimeter=parallelogramPerimeter;whiteSpace=wrap;html=1;fixedSize=1;" vertex="1" parent="WIyWlLk6GJQsqaUBKTNV-1">
          <mxGeometry x="353" y="80" width="120" height="60" as="geometry" />
        </mxCell>
        <mxCell id="QWWySNFE1kLV3shPsF9k-106" style="edgeStyle=orthogonalEdgeStyle;rounded=0;orthogonalLoop=1;jettySize=auto;html=1;" edge="1" parent="WIyWlLk6GJQsqaUBKTNV-1" source="QWWySNFE1kLV3shPsF9k-51">
          <mxGeometry relative="1" as="geometry">
            <mxPoint x="412" y="280" as="targetPoint" />
          </mxGeometry>
        </mxCell>
        <mxCell id="QWWySNFE1kLV3shPsF9k-51" value="&quot;sistema&amp;nbsp;&lt;br&gt;encerrado&quot;" style="shape=hexagon;perimeter=hexagonPerimeter2;whiteSpace=wrap;html=1;fixedSize=1;" vertex="1" parent="WIyWlLk6GJQsqaUBKTNV-1">
          <mxGeometry x="352" y="160" width="120" height="80" as="geometry" />
        </mxCell>
        <mxCell id="QWWySNFE1kLV3shPsF9k-57" value="" style="rounded=0;html=1;jettySize=auto;orthogonalLoop=1;fontSize=11;endArrow=block;endFill=0;endSize=8;strokeWidth=1;shadow=0;labelBackgroundColor=none;edgeStyle=orthogonalEdgeStyle;" edge="1" parent="WIyWlLk6GJQsqaUBKTNV-1" target="QWWySNFE1kLV3shPsF9k-27">
          <mxGeometry relative="1" as="geometry">
            <mxPoint x="434" y="-860" as="sourcePoint" />
            <mxPoint x="415" y="140" as="targetPoint" />
            <Array as="points">
              <mxPoint x="414" y="-860" />
            </Array>
          </mxGeometry>
        </mxCell>
        <mxCell id="QWWySNFE1kLV3shPsF9k-79" style="edgeStyle=orthogonalEdgeStyle;rounded=0;orthogonalLoop=1;jettySize=auto;html=1;exitX=0.5;exitY=1;exitDx=0;exitDy=0;" edge="1" parent="WIyWlLk6GJQsqaUBKTNV-1" source="QWWySNFE1kLV3shPsF9k-27">
          <mxGeometry relative="1" as="geometry">
            <mxPoint x="415" y="-680" as="targetPoint" />
          </mxGeometry>
        </mxCell>
        <mxCell id="QWWySNFE1kLV3shPsF9k-27" value="encerrar = &#39;n&#39;" style="rhombus;whiteSpace=wrap;html=1;" vertex="1" parent="WIyWlLk6GJQsqaUBKTNV-1">
          <mxGeometry x="357" y="-800" width="116" height="90" as="geometry" />
        </mxCell>
        <mxCell id="QWWySNFE1kLV3shPsF9k-60" style="edgeStyle=orthogonalEdgeStyle;rounded=0;orthogonalLoop=1;jettySize=auto;html=1;exitX=0.5;exitY=1;exitDx=0;exitDy=0;" edge="1" parent="WIyWlLk6GJQsqaUBKTNV-1" source="QWWySNFE1kLV3shPsF9k-28">
          <mxGeometry relative="1" as="geometry">
            <mxPoint x="414" y="-580" as="targetPoint" />
          </mxGeometry>
        </mxCell>
        <mxCell id="QWWySNFE1kLV3shPsF9k-28" value="tipo de entrada" style="shape=parallelogram;perimeter=parallelogramPerimeter;whiteSpace=wrap;html=1;fixedSize=1;" vertex="1" parent="WIyWlLk6GJQsqaUBKTNV-1">
          <mxGeometry x="354" y="-670" width="120" height="60" as="geometry" />
        </mxCell>
        <mxCell id="QWWySNFE1kLV3shPsF9k-85" style="edgeStyle=orthogonalEdgeStyle;rounded=0;orthogonalLoop=1;jettySize=auto;html=1;" edge="1" parent="WIyWlLk6GJQsqaUBKTNV-1" source="QWWySNFE1kLV3shPsF9k-29">
          <mxGeometry relative="1" as="geometry">
            <mxPoint x="412" y="-450" as="targetPoint" />
          </mxGeometry>
        </mxCell>
        <mxCell id="QWWySNFE1kLV3shPsF9k-29" value="quantidade" style="shape=parallelogram;perimeter=parallelogramPerimeter;whiteSpace=wrap;html=1;fixedSize=1;" vertex="1" parent="WIyWlLk6GJQsqaUBKTNV-1">
          <mxGeometry x="352" y="-570" width="120" height="70" as="geometry" />
        </mxCell>
        <mxCell id="QWWySNFE1kLV3shPsF9k-71" value="" style="endArrow=none;html=1;rounded=0;" edge="1" parent="WIyWlLk6GJQsqaUBKTNV-1">
          <mxGeometry width="50" height="50" relative="1" as="geometry">
            <mxPoint x="960" y="200" as="sourcePoint" />
            <mxPoint x="960" y="-760" as="targetPoint" />
          </mxGeometry>
        </mxCell>
        <mxCell id="QWWySNFE1kLV3shPsF9k-73" value="" style="endArrow=none;html=1;rounded=0;" edge="1" parent="WIyWlLk6GJQsqaUBKTNV-1">
          <mxGeometry width="50" height="50" relative="1" as="geometry">
            <mxPoint x="480" y="-760" as="sourcePoint" />
            <mxPoint x="960" y="-760" as="targetPoint" />
          </mxGeometry>
        </mxCell>
        <mxCell id="QWWySNFE1kLV3shPsF9k-74" value="" style="endArrow=classic;html=1;rounded=0;" edge="1" parent="WIyWlLk6GJQsqaUBKTNV-1">
          <mxGeometry width="50" height="50" relative="1" as="geometry">
            <mxPoint x="960" y="200" as="sourcePoint" />
            <mxPoint x="490" y="200" as="targetPoint" />
          </mxGeometry>
        </mxCell>
        <mxCell id="QWWySNFE1kLV3shPsF9k-75" value="" style="endArrow=none;html=1;rounded=0;exitX=0.021;exitY=0.633;exitDx=0;exitDy=0;exitPerimeter=0;" edge="1" parent="WIyWlLk6GJQsqaUBKTNV-1" source="QWWySNFE1kLV3shPsF9k-49">
          <mxGeometry width="50" height="50" relative="1" as="geometry">
            <mxPoint x="330" y="80" as="sourcePoint" />
            <mxPoint x="200" y="120" as="targetPoint" />
          </mxGeometry>
        </mxCell>
        <mxCell id="QWWySNFE1kLV3shPsF9k-76" value="" style="endArrow=none;html=1;rounded=0;" edge="1" parent="WIyWlLk6GJQsqaUBKTNV-1">
          <mxGeometry width="50" height="50" relative="1" as="geometry">
            <mxPoint x="200" y="-756" as="sourcePoint" />
            <mxPoint x="200" y="120" as="targetPoint" />
            <Array as="points" />
          </mxGeometry>
        </mxCell>
        <mxCell id="QWWySNFE1kLV3shPsF9k-77" value="" style="endArrow=classic;html=1;rounded=0;" edge="1" parent="WIyWlLk6GJQsqaUBKTNV-1">
          <mxGeometry width="50" height="50" relative="1" as="geometry">
            <mxPoint x="200" y="-755" as="sourcePoint" />
            <mxPoint x="354" y="-755.5" as="targetPoint" />
          </mxGeometry>
        </mxCell>
        <mxCell id="QWWySNFE1kLV3shPsF9k-78" value="&lt;h1&gt;&lt;font style=&quot;font-size: 18px;&quot;&gt;F&lt;/font&gt;&lt;/h1&gt;" style="text;html=1;align=center;verticalAlign=middle;resizable=0;points=[];autosize=1;strokeColor=none;fillColor=none;" vertex="1" parent="WIyWlLk6GJQsqaUBKTNV-1">
          <mxGeometry x="635" y="-812" width="30" height="70" as="geometry" />
        </mxCell>
        <mxCell id="QWWySNFE1kLV3shPsF9k-89" value="" style="endArrow=none;html=1;rounded=0;" edge="1" parent="WIyWlLk6GJQsqaUBKTNV-1">
          <mxGeometry width="50" height="50" relative="1" as="geometry">
            <mxPoint x="840" y="-300" as="sourcePoint" />
            <mxPoint x="840" y="-347.5" as="targetPoint" />
          </mxGeometry>
        </mxCell>
        <mxCell id="QWWySNFE1kLV3shPsF9k-90" value="" style="endArrow=classic;html=1;rounded=0;" edge="1" parent="WIyWlLk6GJQsqaUBKTNV-1">
          <mxGeometry width="50" height="50" relative="1" as="geometry">
            <mxPoint x="840" y="-300" as="sourcePoint" />
            <mxPoint x="440" y="-300" as="targetPoint" />
          </mxGeometry>
        </mxCell>
        <mxCell id="QWWySNFE1kLV3shPsF9k-97" value="" style="endArrow=classic;html=1;rounded=0;" edge="1" parent="WIyWlLk6GJQsqaUBKTNV-1">
          <mxGeometry width="50" height="50" relative="1" as="geometry">
            <mxPoint x="640" y="-80" as="sourcePoint" />
            <mxPoint x="420" y="-80" as="targetPoint" />
          </mxGeometry>
        </mxCell>
        <mxCell id="QWWySNFE1kLV3shPsF9k-99" value="" style="endArrow=none;html=1;rounded=0;" edge="1" parent="WIyWlLk6GJQsqaUBKTNV-1">
          <mxGeometry width="50" height="50" relative="1" as="geometry">
            <mxPoint x="640" y="-90" as="sourcePoint" />
            <mxPoint x="640" y="-100" as="targetPoint" />
            <Array as="points">
              <mxPoint x="640" y="-80" />
              <mxPoint x="640" y="-90" />
            </Array>
          </mxGeometry>
        </mxCell>
        <mxCell id="QWWySNFE1kLV3shPsF9k-102" value="" style="endArrow=classic;html=1;rounded=0;" edge="1" parent="WIyWlLk6GJQsqaUBKTNV-1">
          <mxGeometry width="50" height="50" relative="1" as="geometry">
            <mxPoint x="810" y="-70" as="sourcePoint" />
            <mxPoint x="420" y="-70" as="targetPoint" />
          </mxGeometry>
        </mxCell>
        <mxCell id="QWWySNFE1kLV3shPsF9k-104" value="" style="endArrow=none;html=1;rounded=0;entryX=0.5;entryY=1;entryDx=0;entryDy=0;" edge="1" parent="WIyWlLk6GJQsqaUBKTNV-1" target="QWWySNFE1kLV3shPsF9k-46">
          <mxGeometry width="50" height="50" relative="1" as="geometry">
            <mxPoint x="810" y="-70" as="sourcePoint" />
            <mxPoint x="560" y="-210" as="targetPoint" />
          </mxGeometry>
        </mxCell>
        <mxCell id="QWWySNFE1kLV3shPsF9k-107" value="&lt;h1&gt;&lt;font style=&quot;font-size: 18px;&quot;&gt;v&lt;/font&gt;&lt;/h1&gt;" style="text;html=1;align=center;verticalAlign=middle;resizable=0;points=[];autosize=1;strokeColor=none;fillColor=none;" vertex="1" parent="WIyWlLk6GJQsqaUBKTNV-1">
          <mxGeometry x="379" y="-732" width="30" height="70" as="geometry" />
        </mxCell>
        <mxCell id="QWWySNFE1kLV3shPsF9k-109" value="&lt;h1&gt;&lt;font style=&quot;font-size: 18px;&quot;&gt;v&lt;/font&gt;&lt;/h1&gt;" style="text;html=1;align=center;verticalAlign=middle;resizable=0;points=[];autosize=1;strokeColor=none;fillColor=none;" vertex="1" parent="WIyWlLk6GJQsqaUBKTNV-1">
          <mxGeometry x="497.5" y="-440" width="30" height="70" as="geometry" />
        </mxCell>
        <mxCell id="QWWySNFE1kLV3shPsF9k-110" value="&lt;h1&gt;&lt;font style=&quot;font-size: 18px;&quot;&gt;F&lt;/font&gt;&lt;/h1&gt;" style="text;html=1;align=center;verticalAlign=middle;resizable=0;points=[];autosize=1;strokeColor=none;fillColor=none;" vertex="1" parent="WIyWlLk6GJQsqaUBKTNV-1">
          <mxGeometry x="379" y="-345" width="30" height="70" as="geometry" />
        </mxCell>
        <mxCell id="QWWySNFE1kLV3shPsF9k-111" value="&lt;h1&gt;&lt;font style=&quot;font-size: 18px;&quot;&gt;V&lt;/font&gt;&lt;/h1&gt;" style="text;html=1;align=center;verticalAlign=middle;resizable=0;points=[];autosize=1;strokeColor=none;fillColor=none;" vertex="1" parent="WIyWlLk6GJQsqaUBKTNV-1">
          <mxGeometry x="487.5" y="-290" width="40" height="70" as="geometry" />
        </mxCell>
        <mxCell id="QWWySNFE1kLV3shPsF9k-112" value="&lt;h1&gt;&lt;font style=&quot;font-size: 18px;&quot;&gt;V&lt;/font&gt;&lt;/h1&gt;" style="text;html=1;align=center;verticalAlign=middle;resizable=0;points=[];autosize=1;strokeColor=none;fillColor=none;" vertex="1" parent="WIyWlLk6GJQsqaUBKTNV-1">
          <mxGeometry x="700" y="-292" width="40" height="70" as="geometry" />
        </mxCell>
        <mxCell id="QWWySNFE1kLV3shPsF9k-114" value="&lt;h1&gt;&lt;font style=&quot;font-size: 18px;&quot;&gt;F&lt;/font&gt;&lt;/h1&gt;" style="text;html=1;align=center;verticalAlign=middle;resizable=0;points=[];autosize=1;strokeColor=none;fillColor=none;" vertex="1" parent="WIyWlLk6GJQsqaUBKTNV-1">
          <mxGeometry x="600" y="-230" width="30" height="70" as="geometry" />
        </mxCell>
        <mxCell id="QWWySNFE1kLV3shPsF9k-115" value="&lt;h1&gt;&lt;font style=&quot;font-size: 18px;&quot;&gt;F&lt;/font&gt;&lt;/h1&gt;" style="text;html=1;align=center;verticalAlign=middle;resizable=0;points=[];autosize=1;strokeColor=none;fillColor=none;" vertex="1" parent="WIyWlLk6GJQsqaUBKTNV-1">
          <mxGeometry x="384" y="-180" width="30" height="70" as="geometry" />
        </mxCell>
      </root>
    </mxGraphModel>
  </diagram>
</mxfile>
